<svg id="Layer_5" enable-background="new 0 0 64 64" height="512" viewBox="0 0 64 64" width="512" xmlns="http://www.w3.org/2000/svg" xmlns:xlink="http://www.w3.org/1999/xlink"><linearGradient id="SVGID_1_" gradientUnits="userSpaceOnUse" x1="32" x2="32" y1="63" y2="1"><stop offset="0" stop-color="#9f2fff"/><stop offset="1" stop-color="#0bb1d3"/></linearGradient><path d="m55 31.764-.105-.211c-2.548-5.095-3.895-10.8-3.895-16.497v-11.056c0-1.654-1.346-3-3-3h-4c-1.654 0-3 1.346-3 3v1h-18v-1c0-1.654-1.346-3-3-3h-4c-1.654 0-3 1.346-3 3v11.056c0 5.697-1.347 11.402-3.895 16.497l-.105.211v31.236h46zm-14-24.764v3c0 4.962-4.037 9-9 9s-9-4.038-9-9v-3zm-26 8.056v-11.056c0-.551.448-1 1-1h4c.552 0 1 .449 1 1v6c0 6.065 4.935 11 11 11s11-4.935 11-11v-6c0-.551.448-1 1-1h4c.552 0 1 .449 1 1v11.056c0 5.927 1.383 11.862 4 17.179v.765h-42v-.766c2.617-5.317 4-11.251 4-17.178zm38 19.944v16h-42v-16zm-42 26v-2h34v-2h-34v-4h42v4h-2v2h2v2zm37-36h-10v6h10zm-2 4h-6v-2h6zm-10 20h2c1.654 0 3-1.346 3-3v-6c0-1.654-1.346-3-3-3h-2c-1.654 0-3 1.346-3 3v6c0 1.654 1.346 3 3 3zm-1-9c0-.551.448-1 1-1h2c.552 0 1 .449 1 1v6c0 .551-.448 1-1 1h-2c-.552 0-1-.449-1-1zm-4 9h-8v-2.535l5.109-3.406c.558-.372.891-.994.891-1.664v-.395c0-1.103-.897-2-2-2s-2 .897-2 2v1h-2v-1c0-2.206 1.794-4 4-4s4 1.794 4 4v.395c0 1.34-.666 2.584-1.781 3.328l-3.416 2.277h5.197zm16 8h2v2h-2zm-26-26c2.206 0 4-1.794 4-4s-1.794-4-4-4-4 1.794-4 4 1.794 4 4 4zm0-6c1.103 0 2 .897 2 2s-.897 2-2 2-2-.897-2-2 .897-2 2-2zm30 18h-2v-2h2zm0 4h-2v-2h2zm0-8h-2v-2h2zm-38 10v-2h2v2zm2-4h-2v-2h2zm0-4h-2v-2h2z" fill="url(#SVGID_1_)"/></svg>